<svg width="32" height="16" viewBox="0 0 32 16" fill="none" xmlns="http://www.w3.org/2000/svg">
<path d="M1.25 7C0.697715 7 0.25 7.44772 0.25 8C0.25 8.55228 0.697715 9 1.25 9V7ZM31.4571 8.70711C31.8476 8.31658 31.8476 7.68342 31.4571 7.29289L25.0931 0.928932C24.7026 0.538408 24.0695 0.538408 23.6789 0.928932C23.2884 1.31946 23.2884 1.95262 23.6789 2.34315L29.3358 8L23.6789 13.6569C23.2884 14.0474 23.2884 14.6805 23.6789 15.0711C24.0695 15.4616 24.7026 15.4616 25.0931 15.0711L31.4571 8.70711ZM1.25 9H30.75V7H1.25V9Z" fill="#D5AA6D"/>
</svg>
