<svg width="60" height="60" viewBox="0 0 60 60" fill="none" xmlns="http://www.w3.org/2000/svg">
<path fill-rule="evenodd" clip-rule="evenodd" d="M43.6766 1.56007C43.0157 0.616281 41.693 0.217622 40.6558 0.908499L40.6265 0.925409L40.4486 1.02805C40.2945 1.11717 40.0718 1.24623 39.7971 1.4064C39.2478 1.72665 38.4897 2.17162 37.6547 2.67044C35.994 3.66245 33.9972 4.88626 32.7428 5.76457C31.4141 6.69497 29.5818 8.15225 28.0987 9.36168C27.3534 9.96947 26.6897 10.5201 26.2123 10.9188C25.9736 11.1181 25.7813 11.2797 25.6485 11.3915L25.4956 11.5204L25.472 11.5403C24.4636 12.2829 24.397 13.665 25.0523 14.6009L27.2331 17.7154C27.8509 18.5977 29.0477 19.0044 30.0487 18.4879C30.244 18.538 30.4536 18.5292 30.6482 18.4562C31.0339 19.2109 31.5082 20.1207 32.0041 21.0291L1.92585 42.0901C0.167051 43.3216 -0.256378 45.7394 0.972424 47.4943C2.19938 49.2466 4.62074 49.6763 6.3768 48.4467L36.4479 27.3907C37.2189 28.2676 37.9964 29.1106 38.6099 29.7639L38.3989 29.9116C37.3555 30.6421 37.2677 32.0463 37.9372 33.0023L40.1179 36.1168C40.7729 37.0521 42.0933 37.4624 43.1357 36.7704L43.1619 36.7555L43.3379 36.6554C43.4906 36.5684 43.7111 36.4423 43.9836 36.2855C44.5283 35.972 45.2812 35.5355 46.1136 35.0433C47.7692 34.0644 49.7717 32.8463 51.0694 31.9377C52.3585 31.035 54.188 29.5698 55.6762 28.3475C56.4245 27.7329 57.0938 27.1736 57.576 26.768C57.8171 26.5652 58.0116 26.4006 58.146 26.2867L58.3009 26.1551L58.3241 26.1353C59.3254 25.3965 59.4024 24.0189 58.7422 23.076L56.5614 19.9615C55.8977 19.0137 54.5472 18.6044 53.5016 19.3366L53.2252 19.5301C52.3596 17.7566 50.9095 14.9024 49.7939 13.3092C48.7298 11.7896 46.7256 9.62503 45.3546 8.1973L45.974 7.76356C46.4106 7.45786 46.5283 6.86645 46.2513 6.41887C46.3556 5.82166 46.2127 5.18201 45.8574 4.67456L43.6766 1.56007ZM34.2614 15.9648L32.3171 17.3263C32.8204 18.3156 33.5032 19.6268 34.1865 20.8419C34.4385 21.2901 34.3096 21.8563 33.8884 22.1512L3.073 43.7284C2.21986 44.3258 2.01489 45.4962 2.61073 46.3472C3.2047 47.1954 4.37921 47.4039 5.22965 46.8084L36.0389 25.2356C36.4607 24.9403 37.0377 25.0134 37.3724 25.4047C38.4868 26.7074 39.722 28.0329 40.4949 28.8472L42.3648 27.5378C42.8173 27.2211 43.4408 27.331 43.7576 27.7834C44.0744 28.2358 43.9644 28.8594 43.512 29.1761L40.122 31.5499C39.9379 31.6788 39.7255 31.737 39.5169 31.7303C39.5267 31.7689 39.5449 31.8115 39.5755 31.8552L41.7563 34.9697C41.8167 35.056 41.8917 35.0964 41.9475 35.109C42.0007 35.1211 42.0242 35.108 42.0337 35.1013C42.06 35.0829 42.0871 35.0658 42.115 35.05L42.6073 35.9204L42.115 35.05L42.1151 35.0499L42.1158 35.0495L42.1185 35.048L42.1298 35.0416L42.1745 35.0163L42.3475 34.9178C42.498 34.832 42.7162 34.7073 42.986 34.552C43.5259 34.2414 44.2717 33.809 45.0957 33.3217C46.7531 32.3417 48.6948 31.1588 49.9223 30.2994C51.141 29.446 52.9166 28.026 54.4067 26.802C55.1475 26.1936 55.8106 25.6395 56.2885 25.2375C56.5274 25.0365 56.7199 24.8737 56.8525 24.7613L57.0047 24.632L57.0439 24.5986L57.0538 24.5902L57.0562 24.5881L57.0568 24.5876L57.0569 24.5875L57.7062 25.3481L57.0569 24.5875C57.0812 24.5668 57.1065 24.5472 57.1326 24.5289C57.1425 24.522 57.1629 24.5039 57.1698 24.4505C57.177 24.3951 57.1655 24.3111 57.1039 24.2231L54.9594 21.1606L51.8762 23.3195C51.4238 23.6363 50.8002 23.5263 50.4835 23.0739C50.1667 22.6215 50.2766 21.998 50.729 21.6812L51.7116 20.9932C50.9158 19.3389 49.3063 16.0997 48.1556 14.4563C47.1218 12.9799 45.0431 10.7537 43.6961 9.35859L42.6256 10.1082C42.1732 10.425 41.5496 10.315 41.2328 9.8626C40.9161 9.4102 41.026 8.78665 41.4784 8.46987L42.5921 7.69007C42.6267 7.40957 42.7786 7.15621 43.011 6.99351L44.2509 6.1253C44.2566 6.12135 44.2774 6.10553 44.2844 6.04984C44.2917 5.99203 44.279 5.90737 44.2191 5.82171L42.0383 2.70722C41.9767 2.61923 41.9017 2.57974 41.8472 2.5675C41.7946 2.5557 41.7706 2.56873 41.7608 2.57563C41.7363 2.59277 41.7111 2.6088 41.6852 2.62368L41.1872 1.75648C41.6852 2.62368 41.6852 2.62368 41.6852 2.62369L41.685 2.62378L41.6843 2.62416L41.6815 2.62577L41.6701 2.63233L41.6248 2.65841L41.4497 2.7595C41.2974 2.84754 41.0768 2.97539 40.8044 3.1342C40.2595 3.4519 39.5078 3.89315 38.6803 4.38742C37.0161 5.38158 35.0775 6.5714 33.89 7.40288C32.6276 8.28681 30.8459 9.70209 29.3627 10.9116C28.6249 11.5133 27.9674 12.0588 27.4943 12.4538C27.2579 12.6513 27.0677 12.8111 26.9367 12.9213L26.7865 13.0481L26.7477 13.0808L26.738 13.089L26.7356 13.091L26.7351 13.0915L26.735 13.0916C26.7349 13.0916 26.7349 13.0916 26.0883 12.3288L26.7349 13.0916C26.7115 13.1115 26.6871 13.1303 26.6619 13.148C26.6523 13.1547 26.6319 13.1723 26.6251 13.2263C26.6179 13.2831 26.6302 13.3674 26.6906 13.4537L28.8714 16.5682C28.9332 16.6564 29.0082 16.6959 29.0626 16.7082C29.1152 16.72 29.1388 16.7069 29.1483 16.7003L30.3117 15.8857C30.5439 15.7231 30.8339 15.6669 31.1095 15.7303L33.1142 14.3265C33.5666 14.0098 34.1902 14.1197 34.507 14.5721C34.8237 15.0245 34.7138 15.6481 34.2614 15.9648ZM34.5217 50.2308C34.5217 49.7896 34.8742 49.432 35.3256 49.432H52.4538C52.9021 49.432 53.2577 49.7895 53.2577 50.2308V52.3932C53.2577 52.4971 53.2386 52.5938 53.2049 52.6815C53.0869 52.989 53.1278 53.3349 53.3143 53.6063C53.5009 53.8778 53.8091 54.04 54.1385 54.04H56.4881C56.9339 54.04 57.2897 54.3962 57.2897 54.8388V57.0012C57.2897 57.4432 56.9363 57.8 56.4881 57.8H31.2913C30.8455 57.8 30.4897 57.4437 30.4897 57.0012V54.8388C30.4897 54.3968 30.8431 54.04 31.2913 54.04H33.6411C33.9706 54.04 34.279 53.8777 34.4655 53.606C34.652 53.3344 34.6927 52.9883 34.5744 52.6808C34.5408 52.5935 34.5217 52.4971 34.5217 52.3932V50.2308ZM35.3256 47.432C33.7696 47.432 32.5217 48.6851 32.5217 50.2308V52.04H31.2913C29.7369 52.04 28.4897 53.2939 28.4897 54.8388V57.0012C28.4897 58.5544 29.7471 59.8 31.2913 59.8H56.4881C58.0425 59.8 59.2897 58.5461 59.2897 57.0012V54.8388C59.2897 53.2856 58.0323 52.04 56.4881 52.04H55.2577V50.2308C55.2577 48.6763 53.9981 47.432 52.4538 47.432H35.3256Z" fill="#052A24"/>
</svg>
