<svg width="60" height="60" viewBox="0 0 60 60" fill="none" xmlns="http://www.w3.org/2000/svg">
<path fill-rule="evenodd" clip-rule="evenodd" d="M29.9642 5C16.1769 5 5 16.1769 5 29.9642C5 36.5163 7.52416 42.4789 11.6531 46.9325L4.3856 54.2H1.19995C0.647666 54.2 0.199951 54.6477 0.199951 55.2C0.199951 55.7523 0.647666 56.2 1.19995 56.2H3.79995V58.8C3.79995 59.3523 4.24767 59.8 4.79995 59.8C5.35224 59.8 5.79995 59.3523 5.79995 58.8V55.6141L13.0702 48.3438C17.5157 52.4322 23.4484 54.9284 29.9642 54.9284C43.7516 54.9284 54.9284 43.7516 54.9284 29.9642C54.9284 16.1769 43.7516 5 29.9642 5ZM14.4857 46.9283C18.5682 50.6553 24.0007 52.9284 29.9642 52.9284C42.647 52.9284 52.9284 42.647 52.9284 29.9642C52.9284 17.2814 42.647 7 29.9642 7C17.2814 7 7 17.2814 7 29.9642C7 35.964 9.30089 41.4264 13.0684 45.5171L17.8218 40.7638C15.2665 37.8929 13.7141 34.1099 13.7141 29.9642C13.7141 20.9896 20.9895 13.7142 29.9641 13.7142C38.9387 13.7142 46.214 20.9896 46.214 29.9642C46.214 38.9388 38.9387 46.2142 29.9641 46.2142C25.8548 46.2142 22.1019 44.6889 19.2404 42.1736L14.4857 46.9283ZM20.658 40.7561C23.1547 42.911 26.4072 44.2142 29.9641 44.2142C37.8341 44.2142 44.214 37.8342 44.214 29.9642C44.214 22.0942 37.8341 15.7142 29.9641 15.7142C22.094 15.7142 15.7141 22.0942 15.7141 29.9642C15.7141 33.5575 17.0441 36.8402 19.2387 39.3468L24.0065 34.5791C23.0174 33.304 22.4286 31.7029 22.4286 29.9642C22.4286 25.8023 25.8024 22.4285 29.9643 22.4285C34.1261 22.4285 37.5 25.8023 37.5 29.9642C37.5 34.126 34.1261 37.4999 29.9643 37.4999C28.2622 37.4999 26.6918 36.9356 25.4302 35.9838L20.658 40.7561ZM26.8634 34.5506C27.7481 35.1498 28.8153 35.4999 29.9643 35.4999C33.0216 35.4999 35.5 33.0215 35.5 29.9642C35.5 26.9069 33.0216 24.4285 29.9643 24.4285C26.907 24.4285 24.4286 26.9069 24.4286 29.9642C24.4286 31.1499 24.8014 32.2486 25.4362 33.1494L28.7856 29.8H27.6001C27.0478 29.8 26.6001 29.3523 26.6001 28.8C26.6001 28.2477 27.0478 27.8 27.6001 27.8H31.2001C31.7524 27.8 32.2001 28.2477 32.2001 28.8V32.4C32.2001 32.9523 31.7524 33.4 31.2001 33.4C30.6478 33.4 30.2001 32.9523 30.2001 32.4V31.2139L26.8634 34.5506Z" fill="#052A24"/>
</svg>
