<svg width="60" height="60" viewBox="0 0 60 60" fill="none" xmlns="http://www.w3.org/2000/svg">
<path fill-rule="evenodd" clip-rule="evenodd" d="M25.2 33C25.2 39.6274 19.8274 45 13.2 45C6.57253 45 1.19995 39.6274 1.19995 33H25.2Z" stroke="#052A24" stroke-width="2" stroke-linecap="round" stroke-linejoin="round"/>
<path fill-rule="evenodd" clip-rule="evenodd" d="M58.7998 33C58.7998 39.6274 53.4272 45 46.7998 45C40.1724 45 34.7998 39.6274 34.7998 33H58.7998Z" stroke="#052A24" stroke-width="2" stroke-linecap="round" stroke-linejoin="round"/>
<path d="M30 1.14975V58.5" stroke="#052A24" stroke-width="2" stroke-linecap="round" stroke-linejoin="round"/>
<path d="M47.4001 4.79996H12.6001" stroke="#052A24" stroke-width="2" stroke-linecap="round" stroke-linejoin="round"/>
<path d="M38.4 58.8H21.6" stroke="#052A24" stroke-width="2" stroke-linecap="round" stroke-linejoin="round"/>
<path fill-rule="evenodd" clip-rule="evenodd" d="M14.1006 5.25169L25.2 33H1.19995L12.3181 5.20453C12.6095 5.33028 12.9308 5.39996 13.2683 5.39996C13.5609 5.39996 13.8413 5.34758 14.1006 5.25169Z" stroke="#052A24" stroke-width="2" stroke-linecap="round" stroke-linejoin="round"/>
<path fill-rule="evenodd" clip-rule="evenodd" d="M47.7005 5.25169L58.7998 33H34.7998L45.918 5.20453C46.2094 5.33028 46.5306 5.39996 46.8681 5.39996C47.1608 5.39996 47.4412 5.34758 47.7005 5.25169Z" stroke="#052A24" stroke-width="2" stroke-linecap="round" stroke-linejoin="round"/>
</svg>
