<svg width="60" height="60" viewBox="0 0 60 60" fill="none" xmlns="http://www.w3.org/2000/svg">
<path fill-rule="evenodd" clip-rule="evenodd" d="M27.4286 42.0326V47.7978C27.4286 48.4004 27.9256 48.8889 28.5 48.8889C29.0917 48.8889 29.5714 48.3825 29.5714 47.7978V42.0326C30.8198 41.575 31.7143 40.3402 31.7143 38.8889C31.7143 37.0479 30.2752 35.5556 28.5 35.5556C26.7248 35.5556 25.2857 37.0479 25.2857 38.8889C25.2857 40.3402 26.1802 41.575 27.4286 42.0326ZM25.2857 43.3337V47.7741C25.2857 49.6171 26.7124 51.1111 28.5 51.1111C30.2752 51.1111 31.7143 49.6196 31.7143 47.7741V43.3337C33.0155 42.3202 33.8571 40.7065 33.8571 38.8889C33.8571 35.8206 31.4587 33.3333 28.5 33.3333C25.5413 33.3333 23.1429 35.8206 23.1429 38.8889C23.1429 40.7065 23.9845 42.3202 25.2857 43.3337ZM12.4286 24.4445V16.665C12.4286 7.45935 19.624 0 28.5 0C37.3579 0 44.5714 7.46116 44.5714 16.665V24.4445C48.1267 24.455 51 27.4452 51 31.1322V53.3123C51 57.0297 48.1134 60 44.5526 60H12.4474C8.88341 60 6 57.0058 6 53.3123V31.1322C6 27.4213 8.87643 24.4549 12.4286 24.4445ZM14.5714 24.4444V16.6521C14.5714 8.68483 20.8075 2.22222 28.5 2.22222C36.1769 2.22222 42.4286 8.68268 42.4286 16.6521V24.4444H40.2857V16.6868C40.2857 9.92555 34.9958 4.44444 28.5 4.44444C21.9909 4.44444 16.7143 9.91423 16.7143 16.6868V24.4444H14.5714ZM18.8571 24.4444V16.6686C18.8571 11.1317 23.1744 6.66667 28.5 6.66667C33.8148 6.66667 38.1429 11.1447 38.1429 16.6686V24.4444H18.8571ZM12.423 26.6667C10.0592 26.6667 8.14286 28.6601 8.14286 31.1241V53.3203C8.14286 55.7821 10.052 57.7778 12.423 57.7778H44.577C46.9408 57.7778 48.8571 55.7843 48.8571 53.3203V31.1241C48.8571 28.6623 46.948 26.6667 44.577 26.6667H12.423Z" fill="#052A24"/>
</svg>
