<svg width="60" height="60" viewBox="0 0 60 60" fill="none" xmlns="http://www.w3.org/2000/svg">
<path d="M55 42.3002V49.8002C55.0028 50.4964 54.8602 51.1856 54.5812 51.8235C54.3023 52.4615 53.8932 53.0341 53.3801 53.5048C52.8671 53.9755 52.2614 54.3339 51.6018 54.5569C50.9423 54.78 50.2434 54.8628 49.55 54.8002C41.857 53.9643 34.4675 51.3355 27.975 47.1252C21.9345 43.2868 16.8133 38.1656 12.975 32.1252C8.7499 25.6032 6.12056 18.1776 5.29995 10.4502C5.23748 9.75882 5.31964 9.06205 5.54121 8.40421C5.76277 7.74637 6.11888 7.14187 6.58687 6.6292C7.05486 6.11653 7.62447 5.70692 8.25943 5.42646C8.8944 5.14599 9.58081 5.0008 10.275 5.00015H17.775C18.9882 4.98821 20.1644 5.41785 21.0844 6.20898C22.0043 7.00012 22.6051 8.09877 22.775 9.30015C23.0915 11.7003 23.6786 14.057 24.525 16.3252C24.8613 17.22 24.9341 18.1924 24.7347 19.1274C24.5353 20.0623 24.0721 20.9204 23.4 21.6002L20.225 24.7752C23.7838 31.034 28.9661 36.2163 35.225 39.7752L38.4 36.6002C39.0797 35.928 39.9378 35.4648 40.8728 35.2654C41.8077 35.066 42.7801 35.1388 43.675 35.4752C45.9431 36.3215 48.2998 36.9086 50.7 37.2252C51.9144 37.3965 53.0235 38.0082 53.8163 38.9439C54.6091 39.8796 55.0304 41.0741 55 42.3002Z" stroke="#052A24" stroke-width="2" stroke-linecap="round" stroke-linejoin="round"/>
</svg>
