<svg width="60" height="60" viewBox="0 0 60 60" fill="none" xmlns="http://www.w3.org/2000/svg">
<path fill-rule="evenodd" clip-rule="evenodd" d="M20.494 21.0606C20.0741 21.3191 19.2831 22.942 19.641 24.3659C20.1732 26.4835 22.0663 27.31 22.0663 27.31C22.0663 27.31 25.0279 31.2204 25.0279 33.4945C25.0279 35.7686 25.0279 36.6521 24.2342 38.5493C23.4405 40.4465 7.86134 42.7207 7.19995 53.9052H29.8755L52.7999 53.9076C52.1386 42.7231 36.5594 40.4489 35.7657 38.5517C34.972 36.6545 34.972 35.771 34.972 33.4969C34.972 31.2228 37.9336 27.3124 37.9336 27.3124C37.9336 27.3124 39.8267 26.486 40.3589 24.3683C40.7168 22.9444 39.9258 21.3216 39.5059 21.063C40.6283 17.6383 42.8699 5.83177 30.1244 5.40624C30.0678 5.39819 30.0114 5.39963 29.9553 5.40128C17.13 5.82932 19.3716 17.6359 20.494 21.0606Z" stroke="#052A24" stroke-width="2" stroke-linecap="round" stroke-linejoin="round"/>
<path fill-rule="evenodd" clip-rule="evenodd" d="M1.19995 46.4533C4.94154 43.8299 9.60657 42.8119 9.98671 41.9032C10.615 40.4013 10.615 39.7019 10.615 37.9017C10.615 36.1014 8.27051 33.0059 8.27051 33.0059C8.27051 33.0059 6.77191 32.3516 6.35059 30.6752C6.0673 29.548 6.69349 28.2633 7.02589 28.0586C6.13738 25.3475 4.36284 16.0012 14.5157 15.6623C14.5601 15.661 14.6047 15.6599 14.6496 15.6662C16.8392 15.7393 18.4701 16.2367 19.6725 16.9986C19.8291 18.691 20.2 20.1634 20.494 21.0606C20.0741 21.3191 19.2831 22.942 19.641 24.3659C20.1732 26.4836 22.0663 27.31 22.0663 27.31C22.0663 27.31 22.128 27.3916 22.2337 27.5379C22.1799 27.7316 22.1266 27.9067 22.0762 28.0606C22.4086 28.2652 23.0348 29.55 22.7515 30.6772C22.3302 32.3535 20.8316 33.0078 20.8316 33.0078C20.8316 33.0078 18.4871 36.1034 18.4871 37.9036C18.4871 39.4044 18.4871 40.1402 18.8512 41.2136C14.0119 43.3174 7.61852 46.8269 7.19995 53.9052H29.8755L52.8 53.9076C52.3736 46.6971 45.747 43.1899 40.8792 41.0996C41.215 40.0713 41.215 39.3353 41.215 37.8743C41.215 36.0741 38.8705 32.9785 38.8705 32.9785C38.8705 32.9785 37.3719 32.3242 36.9506 30.6479C36.6673 29.5207 37.2935 28.2359 37.6259 28.0313C37.6049 27.9673 37.5835 27.8996 37.5617 27.8284C37.7882 27.5046 37.9336 27.3125 37.9336 27.3125C37.9336 27.3125 39.8267 26.486 40.3589 24.3684C40.7168 22.9445 39.9258 21.3216 39.5059 21.063C39.8116 20.13 40.2005 18.575 40.3467 16.7974C41.5264 16.1322 43.0817 15.7028 45.1157 15.6349C45.1601 15.6336 45.2047 15.6325 45.2496 15.6389C55.3393 15.9757 53.5647 25.3221 52.6762 28.0332C53.0086 28.2379 53.6348 29.5226 53.3515 30.6498C52.9302 32.3262 51.4316 32.9804 51.4316 32.9804C51.4316 32.9804 49.0871 36.076 49.0871 37.8762C49.0871 39.6765 49.0871 40.3759 49.7154 41.8777C50.1057 42.8107 55.0129 43.8589 58.8 46.6416V54.0334L45.0525 54.032H32.5984C32.599 54.0417 32.5996 54.0515 32.6002 54.0613L14.4525 54.0593H1.19995V46.4533Z" stroke="#052A24" stroke-width="2" stroke-linecap="round" stroke-linejoin="round"/>
</svg>
