<svg width="48" height="48" viewBox="0 0 48 48" fill="none" xmlns="http://www.w3.org/2000/svg">
<path fill-rule="evenodd" clip-rule="evenodd" d="M24 48C37.2548 48 48 37.2548 48 24C48 10.7452 37.2548 0 24 0C10.7452 0 0 10.7452 0 24C0 37.2548 10.7452 48 24 48ZM30.2534 27.96L33.6401 28.3467C34.9867 28.5067 36.0001 29.64 35.9867 30.9867V33.2934C35.9867 34.8 34.7334 36.0534 33.2267 35.96C21.8534 35.2534 12.7467 26.16 12.0401 14.7734C11.9467 13.2667 13.2001 12.0134 14.7067 12.0134H17.0134C18.3734 12.0134 19.5067 13.0267 19.6667 14.3734L20.0534 17.7334C20.1467 18.5467 19.8667 19.3467 19.2934 19.92L16.8267 22.3867C18.7467 26.1734 21.8401 29.2534 25.6134 31.1734L28.0667 28.72C28.6401 28.1467 29.4401 27.8667 30.2534 27.96Z" fill="#D5AA6D"/>
</svg>
