<svg width="140" height="60" viewBox="0 0 140 60" fill="none" xmlns="http://www.w3.org/2000/svg">
<path d="M43.9261 16.843C43.8653 15.4047 42.8271 13.8804 41.5104 13.298L24.0994 5.58505C23.517 5.32677 22.7624 5.18497 21.9825 5.18497C21.2026 5.18497 20.4531 5.32677 19.8656 5.58505L2.45458 13.303C1.13786 13.8854 0.104748 15.4148 0.0541054 16.8531C0.0287839 17.5773 -0.538417 34.6997 2.66728 40.3109C5.86285 45.8968 19.2731 53.9288 19.8454 54.2681C20.4379 54.6226 21.1975 54.815 21.9926 54.815C22.7826 54.815 23.5372 54.6226 24.1247 54.2782C24.702 53.9389 38.2389 45.9019 41.4294 40.3109C44.6401 34.6997 43.9565 17.5722 43.9261 16.843ZM38.5326 38.6954C35.7877 43.4963 23.0055 51.0877 22.8789 51.1637C22.6662 51.2903 22.337 51.3612 21.9926 51.3612C21.6482 51.3612 21.314 51.2852 21.1013 51.1586C20.9747 51.0826 8.3089 43.5014 5.55899 38.6954C3.29019 34.725 3.20916 22.0997 3.36615 17.5722C3.38641 17.0709 3.85232 16.3771 4.31317 16.1694L20.8835 8.82619C21.1469 8.70971 21.5622 8.63881 21.9825 8.63881C22.4079 8.63881 22.8181 8.70971 23.0814 8.82619L39.6518 16.1694C40.1127 16.3771 40.5887 17.0709 40.609 17.5773C40.8065 22.1048 40.8014 34.725 38.5326 38.6954Z" fill="#D5AA6D"/>
<path d="M18.3815 24.7693C18.7923 21.6006 19.7458 19.1654 21.2421 17.4637C22.7678 15.7327 24.7629 14.8671 27.2275 14.8671C29.692 14.8671 30.9243 15.718 30.9243 17.4197C30.9243 18.564 30.6456 19.6202 30.0881 20.5884C29.56 21.5273 28.8412 22.3195 27.9316 22.9649C26.1419 24.1679 24.0441 25.0334 21.6382 25.5615C21.0514 30.608 20.1859 34.2168 19.0417 36.3879C21.7409 37.2975 23.56 37.8843 24.4989 38.1483C25.4377 38.383 26.4206 38.5004 27.4475 38.5004C28.5038 38.5004 29.2226 38.075 29.604 37.2241C29.9854 36.3733 30.2642 35.9478 30.4402 35.9478C30.7923 35.9478 30.9683 36.1679 30.9683 36.608C30.9683 37.987 30.4549 39.1606 29.428 40.1288C28.4011 41.097 27.2862 41.5811 26.0832 41.5811C24.851 41.5811 23.736 41.3757 22.7385 40.965C21.7409 40.5542 21.1101 40.2901 20.8461 40.1728C20.582 40.0554 20.0392 39.806 19.2177 39.4246C18.4255 39.0432 17.8681 38.7791 17.5453 38.6324C16.4304 39.806 14.9341 40.3928 13.0563 40.3928C12.2935 40.3928 11.6187 40.1141 11.0319 39.5566C10.4451 38.9992 10.1517 38.339 10.1517 37.5762C10.1517 35.9038 11.1052 35.0676 13.0123 35.0676C13.8338 35.0676 14.9781 35.2583 16.4451 35.6398C17.0025 33.8794 17.5893 30.6813 18.2055 26.0456C17.8827 26.075 17.4426 26.0896 16.8852 26.0896C16.3571 26.0896 16.093 26.0016 16.093 25.8256C16.093 25.2681 16.8558 24.916 18.3815 24.7693ZM21.7703 24.2852C23.648 23.8745 25.1884 23.185 26.3913 22.2168C27.6236 21.2192 28.2397 19.9283 28.2397 18.3439C28.2397 16.7595 27.6969 15.9674 26.6113 15.9674C24.2348 15.9674 22.6211 18.74 21.7703 24.2852ZM15.4329 37.7082C13.7311 36.9747 12.6749 36.608 12.2641 36.608C11.8827 36.608 11.692 36.8134 11.692 37.2241C11.692 37.6349 11.8681 37.987 12.2201 38.2804C12.6016 38.5738 13.0857 38.7205 13.6725 38.7205C14.2593 38.7205 14.8461 38.383 15.4329 37.7082Z" fill="white"/>
<path d="M66.2872 23H67.7672V35.72H75.6072V37H66.2872V23ZM81.4836 26.4C82.8569 26.4 83.9103 26.7467 84.6436 27.44C85.3769 28.12 85.7436 29.1333 85.7436 30.48V37H84.3836V35.36C84.0636 35.9067 83.5903 36.3333 82.9636 36.64C82.3503 36.9467 81.6169 37.1 80.7636 37.1C79.5903 37.1 78.6569 36.82 77.9636 36.26C77.2703 35.7 76.9236 34.96 76.9236 34.04C76.9236 33.1467 77.2436 32.4267 77.8836 31.88C78.5369 31.3333 79.5703 31.06 80.9836 31.06H84.3236V30.42C84.3236 29.5133 84.0703 28.8267 83.5636 28.36C83.0569 27.88 82.3169 27.64 81.3436 27.64C80.6769 27.64 80.0369 27.7533 79.4236 27.98C78.8103 28.1933 78.2836 28.4933 77.8436 28.88L77.2036 27.82C77.7369 27.3667 78.3769 27.02 79.1236 26.78C79.8703 26.5267 80.6569 26.4 81.4836 26.4ZM80.9836 35.98C81.7836 35.98 82.4703 35.8 83.0436 35.44C83.6169 35.0667 84.0436 34.5333 84.3236 33.84V32.12H81.0236C79.2236 32.12 78.3236 32.7467 78.3236 34C78.3236 34.6133 78.5569 35.1 79.0236 35.46C79.4903 35.8067 80.1436 35.98 80.9836 35.98ZM95.1405 36.36C94.8738 36.6 94.5405 36.7867 94.1405 36.92C93.7538 37.04 93.3472 37.1 92.9205 37.1C91.9338 37.1 91.1738 36.8333 90.6405 36.3C90.1072 35.7667 89.8405 35.0133 89.8405 34.04V27.68H87.9605V26.48H89.8405V24.18H91.2605V26.48H94.4605V27.68H91.2605V33.96C91.2605 34.5867 91.4138 35.0667 91.7205 35.4C92.0405 35.72 92.4938 35.88 93.0805 35.88C93.3738 35.88 93.6538 35.8333 93.9205 35.74C94.2005 35.6467 94.4405 35.5133 94.6405 35.34L95.1405 36.36ZM97.7255 26.48H99.1455V37H97.7255V26.48ZM98.4455 24.18C98.1522 24.18 97.9055 24.08 97.7055 23.88C97.5055 23.68 97.4055 23.44 97.4055 23.16C97.4055 22.8933 97.5055 22.66 97.7055 22.46C97.9055 22.26 98.1522 22.16 98.4455 22.16C98.7388 22.16 98.9855 22.26 99.1855 22.46C99.3855 22.6467 99.4855 22.8733 99.4855 23.14C99.4855 23.4333 99.3855 23.68 99.1855 23.88C98.9855 24.08 98.7388 24.18 98.4455 24.18ZM108.457 26.4C109.777 26.4 110.823 26.7867 111.597 27.56C112.383 28.32 112.777 29.4333 112.777 30.9V37H111.357V31.04C111.357 29.9467 111.083 29.1133 110.537 28.54C109.99 27.9667 109.21 27.68 108.197 27.68C107.063 27.68 106.163 28.02 105.497 28.7C104.843 29.3667 104.517 30.2933 104.517 31.48V37H103.097V26.48H104.457V28.42C104.843 27.78 105.377 27.2867 106.057 26.94C106.75 26.58 107.55 26.4 108.457 26.4ZM120.312 26.4C121.685 26.4 122.738 26.7467 123.472 27.44C124.205 28.12 124.572 29.1333 124.572 30.48V37H123.212V35.36C122.892 35.9067 122.418 36.3333 121.792 36.64C121.178 36.9467 120.445 37.1 119.592 37.1C118.418 37.1 117.485 36.82 116.792 36.26C116.098 35.7 115.752 34.96 115.752 34.04C115.752 33.1467 116.072 32.4267 116.712 31.88C117.365 31.3333 118.398 31.06 119.812 31.06H123.152V30.42C123.152 29.5133 122.898 28.8267 122.392 28.36C121.885 27.88 121.145 27.64 120.172 27.64C119.505 27.64 118.865 27.7533 118.252 27.98C117.638 28.1933 117.112 28.4933 116.672 28.88L116.032 27.82C116.565 27.3667 117.205 27.02 117.952 26.78C118.698 26.5267 119.485 26.4 120.312 26.4ZM119.812 35.98C120.612 35.98 121.298 35.8 121.872 35.44C122.445 35.0667 122.872 34.5333 123.152 33.84V32.12H119.852C118.052 32.12 117.152 32.7467 117.152 34C117.152 34.6133 117.385 35.1 117.852 35.46C118.318 35.8067 118.972 35.98 119.812 35.98Z" fill="#fff" />
</svg>
