<?xml version="1.0" encoding="utf-8"?><svg viewBox="0 0 60 60" xmlns="http://www.w3.org/2000/svg" xmlns:xlink="http://www.w3.org/1999/xlink"><style>:root>svg{display:none}:root>svg:target{display:block}</style><svg fill="none" viewBox="0 0 32 16" id="arrow" xmlns="http://www.w3.org/2000/svg"><path d="M1.25 7a1 1 0 000 2V7zm30.207 1.707a1 1 0 000-1.414L25.093.929a1 1 0 10-1.414 1.414L29.336 8l-5.657 5.657a1 1 0 001.414 1.414l6.364-6.364zM1.25 9h29.5V7H1.25v2z" fill="#D5AA6D"/></svg><svg fill="none" viewBox="0 0 24 25" id="arrow-down" xmlns="http://www.w3.org/2000/svg"><path d="M6 9.5l6 6 6-6" stroke="#D5AA6D" stroke-width="2" stroke-linecap="round" stroke-linejoin="round"/></svg><svg fill="none" viewBox="0 0 30 54" id="arrow-right" xmlns="http://www.w3.org/2000/svg"><path d="M2.5 52l25-25-25-25" stroke="#052A24" stroke-width="4" stroke-linecap="round" stroke-linejoin="round"/></svg><svg fill="none" viewBox="0 0 60 60" id="bank" xmlns="http://www.w3.org/2000/svg"><path clip-rule="evenodd" d="M30 1.2S.857 16.66 1.203 16.677v4.107h57.594v-4.107C59.143 16.659 30 1.2 30 1.2zM18 26.4v21.978H7.632V26.4H6V21h13.296v5.4H18zm17.4 0v21.978H25.032V26.4H23.4V21h13.296v5.4H35.4zm17.4 0v21.978H42.432V26.4H40.8V21h13.296v5.4H52.8zm1.046 26.726v-4.694H6.153v4.694H4.08V58.8h51.84v-5.674h-2.074z" stroke="#052A24" stroke-width="2" stroke-linecap="round" stroke-linejoin="round"/></svg><svg fill="none" viewBox="0 0 60 60" id="clock" xmlns="http://www.w3.org/2000/svg"><path d="M30 55c13.807 0 25-11.193 25-25S43.807 5 30 5 5 16.193 5 30s11.193 25 25 25z" stroke="#052A24" stroke-width="2" stroke-linecap="round" stroke-linejoin="round"/><path d="M30 15v15l10 5" stroke="#052A24" stroke-width="2" stroke-linecap="round" stroke-linejoin="round"/></svg><svg viewBox="0 0 25 25" id="close" xmlns="http://www.w3.org/2000/svg"><path d="M3.966 3.567L21.401 21.78m-17.435 0L21.401 3.568" fill="#5f6368" stroke="#5f6368" stroke-width="3.232" stroke-linecap="round"/></svg><svg fill="none" viewBox="0 0 60 60" id="court" xmlns="http://www.w3.org/2000/svg"><path fill-rule="evenodd" clip-rule="evenodd" d="M43.677 1.56C43.016.616 41.693.218 40.656.908l-.03.017-.177.103a211.76 211.76 0 00-2.794 1.642c-1.661.992-3.658 2.216-4.912 3.095-1.329.93-3.161 2.387-4.644 3.597a212.34 212.34 0 00-2.45 2.03l-.153.128-.024.02c-1.008.743-1.075 2.125-.42 3.06l2.181 3.115c.618.883 1.815 1.29 2.816.773a1 1 0 00.6-.032c.385.755.86 1.665 1.355 2.573L1.926 42.09a3.878 3.878 0 00-.954 5.404 3.882 3.882 0 005.405.953l30.07-21.056c.772.877 1.55 1.72 2.163 2.373l-.211.148c-1.044.73-1.131 2.134-.462 3.09l2.18 3.115c.656.935 1.976 1.345 3.019.653l.026-.015.176-.1.646-.37c.544-.313 1.297-.75 2.13-1.242 1.655-.979 3.658-2.197 4.955-3.105 1.29-.903 3.119-2.368 4.607-3.59a213.966 213.966 0 002.47-2.061l.155-.132.023-.02c1.001-.739 1.078-2.116.418-3.059l-2.18-3.114c-.664-.948-2.015-1.358-3.06-.625l-.277.193c-.865-1.773-2.316-4.628-3.431-6.22-1.064-1.52-3.068-3.685-4.44-5.113l.62-.433a1 1 0 00.277-1.345 2.365 2.365 0 00-.394-1.744l-2.18-3.115zM34.26 15.965l-1.944 1.361c.503.99 1.186 2.3 1.87 3.516a1 1 0 01-.299 1.31L3.073 43.727a1.878 1.878 0 00-.462 2.62 1.882 1.882 0 002.619.46l30.809-21.572a1 1 0 011.333.169 94.915 94.915 0 003.123 3.442l1.87-1.31a1 1 0 011.147 1.64l-3.39 2.373a.996.996 0 01-.605.18c.01.039.028.081.058.125l2.181 3.115c.06.086.136.126.191.139.054.012.077-.001.087-.008a1.01 1.01 0 01.081-.051l.492.87-.492-.87.003-.002.012-.006.044-.026.173-.098c.151-.086.37-.21.639-.366.54-.31 1.286-.743 2.11-1.23 1.657-.98 3.599-2.163 4.826-3.023 1.219-.853 2.995-2.273 4.485-3.497a211.065 211.065 0 002.446-2.04l.152-.13.039-.033.01-.009.002-.002.65.76-.65-.76c.025-.021.05-.04.077-.06.01-.006.03-.024.037-.077a.33.33 0 00-.066-.228l-2.145-3.062-3.083 2.159a1 1 0 01-1.147-1.639l.983-.688c-.796-1.654-2.406-4.893-3.556-6.537-1.034-1.476-3.113-3.702-4.46-5.097l-1.07.75a1 1 0 01-1.148-1.64l1.114-.779a1 1 0 01.419-.696l1.24-.869c.006-.004.026-.02.033-.075a.334.334 0 00-.065-.228l-2.18-3.115a.33.33 0 00-.192-.14c-.052-.011-.076.002-.086.009a1.21 1.21 0 01-.076.048l-.498-.868.498.868-.004.002-.01.006-.046.026-.175.102a203.746 203.746 0 00-2.77 1.627c-1.664.995-3.602 2.184-4.79 3.016-1.262.884-3.044 2.3-4.527 3.509a212.906 212.906 0 00-2.426 2.01l-.15.126-.04.033-.009.008-.002.002h-.001l-.647-.762.647.763a.999.999 0 01-.073.056c-.01.007-.03.024-.037.078a.332.332 0 00.066.228l2.18 3.114a.332.332 0 00.192.14c.052.012.076-.001.085-.008l1.164-.814a1 1 0 01.797-.156l2.005-1.404a1 1 0 011.147 1.639zm.26 34.266c0-.441.353-.799.805-.799h17.128c.448 0 .804.357.804.799v2.162a.8.8 0 01-.053.288 1 1 0 00.934 1.359h2.35c.445 0 .8.356.8.799V57a.796.796 0 01-.8.799H31.29a.797.797 0 01-.801-.799v-2.16c0-.442.353-.799.801-.799h2.35a1 1 0 00.933-1.36.797.797 0 01-.052-.287v-2.162zm.805-2.799a2.797 2.797 0 00-2.804 2.799v1.809h-1.23a2.796 2.796 0 00-2.802 2.799V57a2.797 2.797 0 002.801 2.8h25.197a2.796 2.796 0 002.802-2.799V54.84a2.797 2.797 0 00-2.802-2.799h-1.23v-1.81a2.798 2.798 0 00-2.804-2.798H35.326z" fill="#052A24"/></svg><svg fill="none" viewBox="0 0 48 48" id="email" xmlns="http://www.w3.org/2000/svg"><path fill-rule="evenodd" clip-rule="evenodd" d="M24 0C10.745 0 0 10.745 0 24s10.745 24 24 24 24-10.745 24-24S37.255 0 24 0zM10 23.96C10 16.263 16.28 10 24 10s14 6.263 14 13.96c0 1.09-.091 1.974-.295 2.86l-.003.014c0 .003-.102.412-.158.59-.346 1.103-.972 2.022-1.811 2.657a4.736 4.736 0 01-3.219.941 4.554 4.554 0 01-3.497-2.085A7.035 7.035 0 0124 31.022c-3.905 0-7.082-3.168-7.082-7.062 0-3.893 3.177-7.061 7.082-7.061 3.904 0 7.081 3.168 7.081 7.061v2.277c.006 1.328.9 1.87 1.663 1.932.76.059 1.771-.383 2.123-1.823.174-.79.262-1.593.262-2.386 0-6.12-4.992-11.098-11.13-11.098-6.136 0-11.129 4.979-11.129 11.098 0 6.12 4.993 11.099 11.13 11.099 2.136 0 4.214-.609 6.008-1.76l.032-.02 1.886 2.186-.04.028A13.946 13.946 0 0124 37.92c-7.72 0-14-6.263-14-13.96z" fill="#D5AA6D"/><path fill-rule="evenodd" clip-rule="evenodd" d="M28.21 23.96a4.21 4.21 0 01-4.21 4.2 4.21 4.21 0 01-4.211-4.2 4.21 4.21 0 014.21-4.199 4.21 4.21 0 014.212 4.2z" fill="#D5AA6D"/></svg><svg fill="none" viewBox="0 0 48 48" id="facebook" xmlns="http://www.w3.org/2000/svg"><path fill-rule="evenodd" clip-rule="evenodd" d="M24 0C10.745 0 0 10.745 0 24s10.745 24 24 24 24-10.745 24-24S37.255 0 24 0zm2.502 25.054v13.058h-5.403V25.054H18.4v-4.5h2.7v-2.701c0-3.671 1.523-5.854 5.853-5.854h3.605v4.5h-2.253c-1.686 0-1.797.629-1.797 1.802l-.006 2.253h4.082l-.478 4.5h-3.604z" fill="#D5AA6D"/></svg><svg fill="none" viewBox="0 0 60 60" id="goal" xmlns="http://www.w3.org/2000/svg"><path fill-rule="evenodd" clip-rule="evenodd" d="M29.964 5C16.177 5 5 16.177 5 29.964a24.876 24.876 0 006.653 16.968L4.386 54.2H1.2a1 1 0 100 2h2.6v2.6a1 1 0 102 0v-3.186l7.27-7.27a24.874 24.874 0 0016.894 6.584c13.788 0 24.964-11.176 24.964-24.964C54.928 16.177 43.752 5 29.964 5zM14.486 46.928a22.88 22.88 0 0015.478 6c12.683 0 22.964-10.281 22.964-22.964C52.928 17.281 42.647 7 29.964 7 17.281 7 7 17.281 7 29.964c0 6 2.3 11.462 6.068 15.553l4.754-4.753a16.189 16.189 0 01-4.108-10.8c0-8.974 7.275-16.25 16.25-16.25s16.25 7.276 16.25 16.25c0 8.975-7.275 16.25-16.25 16.25a16.19 16.19 0 01-10.724-4.04l-4.754 4.754zm6.172-6.172a14.194 14.194 0 009.306 3.458c7.87 0 14.25-6.38 14.25-14.25s-6.38-14.25-14.25-14.25-14.25 6.38-14.25 14.25c0 3.593 1.33 6.876 3.525 9.383l4.767-4.768a7.536 7.536 0 111.424 1.405l-4.772 4.772zm6.205-6.205a5.536 5.536 0 10-1.427-1.401l3.35-3.35H27.6a1 1 0 110-2h3.6a1 1 0 011 1v3.6a1 1 0 11-2 0v-1.186l-3.337 3.337z" fill="#052A24"/></svg><svg fill="none" viewBox="0 0 48 48" id="instagram" xmlns="http://www.w3.org/2000/svg"><path fill-rule="evenodd" clip-rule="evenodd" d="M24 0C10.745 0 0 10.745 0 24s10.745 24 24 24 24-10.745 24-24S37.255 0 24 0zm-5.277 11.277c1.366-.062 1.802-.077 5.278-.077h-.004c3.478 0 3.912.015 5.278.077 1.362.063 2.293.279 3.109.595a6.256 6.256 0 012.267 1.476 6.281 6.281 0 011.477 2.268c.315.813.53 1.744.595 3.106.061 1.366.077 1.802.077 5.278 0 3.476-.016 3.912-.077 5.277-.064 1.362-.28 2.293-.595 3.107a6.283 6.283 0 01-1.477 2.267 6.263 6.263 0 01-2.266 1.477c-.815.317-1.746.532-3.108.595-1.366.062-1.8.077-5.277.077-3.476 0-3.912-.015-5.278-.077-1.362-.063-2.293-.278-3.107-.595a6.268 6.268 0 01-2.267-1.477 6.271 6.271 0 01-1.476-2.268c-.316-.814-.532-1.744-.595-3.106-.061-1.366-.077-1.8-.077-5.277 0-3.476.016-3.913.077-5.278.061-1.362.277-2.293.595-3.107a6.284 6.284 0 011.477-2.267 6.268 6.268 0 012.268-1.476c.813-.316 1.744-.532 3.106-.595z" fill="#D5AA6D"/><path fill-rule="evenodd" clip-rule="evenodd" d="M22.853 13.507h1.148c3.418 0 3.823.012 5.173.073 1.248.057 1.925.266 2.376.441.598.232 1.023.51 1.471.957.448.449.725.875.958 1.473.175.45.384 1.127.44 2.375.062 1.35.075 1.755.075 5.171 0 3.416-.013 3.822-.074 5.171-.057 1.248-.266 1.925-.441 2.376a3.958 3.958 0 01-.958 1.47 3.959 3.959 0 01-1.47.958c-.451.176-1.13.384-2.377.44-1.35.062-1.755.075-5.173.075s-3.823-.013-5.172-.074c-1.248-.058-1.925-.266-2.377-.441a3.965 3.965 0 01-1.472-.958 3.968 3.968 0 01-.958-1.471c-.175-.45-.384-1.128-.44-2.376-.062-1.35-.074-1.755-.074-5.173s.012-3.821.073-5.17c.058-1.249.266-1.926.441-2.377a3.96 3.96 0 01.958-1.472 3.972 3.972 0 011.472-.958c.451-.176 1.129-.384 2.377-.441 1.18-.054 1.638-.07 4.024-.072v.003zm7.98 2.125a1.536 1.536 0 100 3.073 1.536 1.536 0 000-3.073zM17.429 24a6.574 6.574 0 1113.147 0 6.574 6.574 0 01-13.147 0z" fill="#D5AA6D"/><path d="M24.001 19.733a4.267 4.267 0 110 8.534 4.267 4.267 0 010-8.534z" fill="#D5AA6D"/></svg><svg fill="none" viewBox="0 0 60 60" id="justice" xmlns="http://www.w3.org/2000/svg"><path clip-rule="evenodd" d="M25.2 33c0 6.627-5.373 12-12 12s-12-5.373-12-12h24zm33.6 0c0 6.627-5.373 12-12 12-6.628 0-12-5.373-12-12h24z" stroke="#052A24" stroke-width="2" stroke-linecap="round" stroke-linejoin="round"/><path d="M30 1.15V58.5M47.4 4.8H12.6m25.8 54H21.6" stroke="#052A24" stroke-width="2" stroke-linecap="round" stroke-linejoin="round"/><path clip-rule="evenodd" d="M14.1 5.252L25.2 33h-24L12.318 5.205a2.393 2.393 0 001.783.047zm33.6 0L58.8 33h-24L45.918 5.205a2.392 2.392 0 001.782.047z" stroke="#052A24" stroke-width="2" stroke-linecap="round" stroke-linejoin="round"/></svg><svg fill="none" viewBox="0 0 48 48" id="linkedin" xmlns="http://www.w3.org/2000/svg"><path fill-rule="evenodd" clip-rule="evenodd" d="M24 0C10.745 0 0 10.745 0 24s10.745 24 24 24 24-10.745 24-24S37.255 0 24 0zM11.522 19.878h5.438V36.22h-5.438V19.878zm5.797-5.055C17.284 13.22 16.138 12 14.277 12c-1.86 0-3.077 1.22-3.077 2.823 0 1.569 1.18 2.824 3.006 2.824h.035c1.897 0 3.078-1.255 3.078-2.824zm12.994 4.671c3.58 0 6.262 2.336 6.262 7.356v9.37h-5.439v-8.743c0-2.196-.787-3.695-2.755-3.695-1.503 0-2.398 1.01-2.791 1.986-.144.35-.18.837-.18 1.325v9.127h-5.439s.072-14.808 0-16.342h5.44v2.315c.721-1.113 2.014-2.699 4.902-2.699z" fill="#D5AA6D"/></svg><svg fill="none" viewBox="0 0 60 60" id="lock" xmlns="http://www.w3.org/2000/svg"><path fill-rule="evenodd" clip-rule="evenodd" d="M27.429 42.033v5.765c0 .602.497 1.09 1.071 1.09.592 0 1.071-.505 1.071-1.09v-5.765c1.249-.458 2.143-1.693 2.143-3.144 0-1.841-1.439-3.333-3.214-3.333s-3.214 1.492-3.214 3.333c0 1.451.894 2.686 2.143 3.144zm-2.143 1.3v4.441c0 1.843 1.426 3.337 3.214 3.337 1.775 0 3.214-1.491 3.214-3.337v-4.44a5.617 5.617 0 002.143-4.445c0-3.068-2.398-5.556-5.357-5.556s-5.357 2.488-5.357 5.556c0 1.817.841 3.431 2.143 4.445zM12.429 24.446v-7.78C12.429 7.459 19.624 0 28.5 0c8.858 0 16.071 7.461 16.071 16.665v7.78c3.556.01 6.429 3 6.429 6.687v22.18C51 57.03 48.113 60 44.553 60H12.447C8.883 60 6 57.006 6 53.312v-22.18c0-3.71 2.876-6.677 6.429-6.688zm2.142 0v-7.793c0-7.967 6.237-14.43 13.929-14.43 7.677 0 13.929 6.46 13.929 14.43v7.792h-2.143v-7.757c0-6.761-5.29-12.243-11.786-12.243-6.51 0-11.786 5.47-11.786 12.243v7.757h-2.143zm4.286 0V16.67c0-5.537 4.317-10.002 9.643-10.002 5.315 0 9.643 4.478 9.643 10.002v7.775H18.857zm-6.434 2.222c-2.364 0-4.28 1.993-4.28 4.457V53.32c0 2.462 1.909 4.458 4.28 4.458h32.154c2.364 0 4.28-1.994 4.28-4.458V31.124c0-2.462-1.909-4.457-4.28-4.457H12.423z" fill="#052A24"/></svg><svg fill="none" viewBox="0 0 60 60" id="mail" xmlns="http://www.w3.org/2000/svg"><path d="M10 10h40c2.75 0 5 2.25 5 5v30c0 2.75-2.25 5-5 5H10c-2.75 0-5-2.25-5-5V15c0-2.75 2.25-5 5-5z" stroke="#052A24" stroke-width="2" stroke-linecap="round" stroke-linejoin="round"/><path d="M55 15L30 32.5 5 15" stroke="#052A24" stroke-width="2" stroke-linecap="round" stroke-linejoin="round"/></svg><svg fill="none" viewBox="0 0 60 60" id="map" xmlns="http://www.w3.org/2000/svg"><path d="M52.5 25C52.5 42.5 30 57.5 30 57.5S7.5 42.5 7.5 25a22.5 22.5 0 0145 0z" stroke="#052A24" stroke-width="2" stroke-linecap="round" stroke-linejoin="round"/><path d="M30 32.5a7.5 7.5 0 100-15 7.5 7.5 0 000 15z" stroke="#052A24" stroke-width="2" stroke-linecap="round" stroke-linejoin="round"/></svg><svg fill="none" viewBox="0 0 60 60" id="old-phone" xmlns="http://www.w3.org/2000/svg"><path d="M55 42.3v7.5a5 5 0 01-5.45 5 49.475 49.475 0 01-21.575-7.675 48.75 48.75 0 01-15-15A49.475 49.475 0 015.3 10.45 5 5 0 0110.275 5h7.5a5 5 0 015 4.3c.317 2.4.904 4.757 1.75 7.025A5 5 0 0123.4 21.6l-3.175 3.175a40 40 0 0015 15L38.4 36.6a5 5 0 015.275-1.125 32.105 32.105 0 007.025 1.75A5 5 0 0155 42.3z" stroke="#052A24" stroke-width="2" stroke-linecap="round" stroke-linejoin="round"/></svg><svg fill="none" viewBox="0 0 60 60" id="people" xmlns="http://www.w3.org/2000/svg"><path clip-rule="evenodd" d="M20.494 21.06c-.42.26-1.21 1.882-.853 3.306.532 2.117 2.425 2.944 2.425 2.944s2.962 3.91 2.962 6.185c0 2.274 0 3.157-.794 5.054C23.44 40.447 7.861 42.721 7.2 53.905h22.675l22.925.003c-.661-11.185-16.24-13.46-17.034-15.356-.794-1.898-.794-2.781-.794-5.055 0-2.274 2.962-6.185 2.962-6.185s1.893-.826 2.425-2.944c.358-1.424-.433-3.046-.853-3.305 1.122-3.425 3.364-15.231-9.382-15.657a.987.987 0 00-.169-.005c-12.825.428-10.583 12.235-9.461 15.66z" stroke="#052A24" stroke-width="2" stroke-linecap="round" stroke-linejoin="round"/><path clip-rule="evenodd" d="M1.2 46.453c3.742-2.623 8.407-3.641 8.787-4.55.628-1.502.628-2.201.628-4.001 0-1.8-2.344-4.896-2.344-4.896s-1.5-.654-1.92-2.33c-.284-1.128.342-2.413.675-2.617-.889-2.712-2.663-12.058 7.49-12.397a.79.79 0 01.134.004c2.19.073 3.82.57 5.022 1.333a19.28 19.28 0 00.822 4.062c-.42.258-1.21 1.881-.853 3.305.532 2.118 2.425 2.944 2.425 2.944s.062.082.168.228a11.41 11.41 0 01-.158.523c.333.204.959 1.489.675 2.616-.42 1.676-1.92 2.33-1.92 2.33s-2.344 3.096-2.344 4.897c0 1.5 0 2.236.364 3.31C14.011 43.317 7.62 46.827 7.2 53.905h22.675l22.925.003c-.426-7.21-7.053-10.718-11.92-12.808.335-1.029.335-1.765.335-3.226 0-1.8-2.345-4.896-2.345-4.896s-1.498-.654-1.92-2.33c-.283-1.127.343-2.412.676-2.617a10.706 10.706 0 01-.064-.203c.226-.323.372-.515.372-.515s1.893-.827 2.425-2.945c.358-1.423-.433-3.046-.853-3.305a19.39 19.39 0 00.84-4.266c1.18-.665 2.736-1.094 4.77-1.162a.78.78 0 01.134.004c10.09.337 8.315 9.683 7.426 12.394.333.205.959 1.49.675 2.617-.42 1.676-1.92 2.33-1.92 2.33s-2.344 3.096-2.344 4.896c0 1.8 0 2.5.628 4.002.39.933 5.298 1.98 9.085 4.764v7.391l-13.747-.001H32.598l.002.03-18.148-.003H1.2v-7.606z" stroke="#052A24" stroke-width="2" stroke-linecap="round" stroke-linejoin="round"/></svg><svg fill="none" viewBox="0 0 48 48" id="phone" xmlns="http://www.w3.org/2000/svg"><path fill-rule="evenodd" clip-rule="evenodd" d="M24 48c13.255 0 24-10.745 24-24S37.255 0 24 0 0 10.745 0 24s10.745 24 24 24zm6.253-20.04l3.387.387a2.643 2.643 0 012.347 2.64v2.306c0 1.507-1.254 2.76-2.76 2.667-11.374-.707-20.48-9.8-21.187-21.187-.093-1.506 1.16-2.76 2.667-2.76h2.306a2.668 2.668 0 012.654 2.36l.386 3.36a2.654 2.654 0 01-.76 2.187l-2.466 2.467a20.06 20.06 0 008.786 8.786l2.454-2.453a2.655 2.655 0 012.186-.76z" fill="#D5AA6D"/></svg><svg fill="none" viewBox="0 0 30 28" id="star" xmlns="http://www.w3.org/2000/svg"><path d="M15 0l3.368 10.365h10.898l-8.817 6.405 3.368 10.365L15 20.73l-8.817 6.405L9.551 16.77.734 10.365h10.898L15 0z" fill="#D5AA6D"/></svg><svg fill="none" viewBox="0 0 48 48" id="telegram" xmlns="http://www.w3.org/2000/svg"><path fill-rule="evenodd" clip-rule="evenodd" d="M0 24c0 13.255 10.745 24 24 24s24-10.745 24-24S37.255 0 24 0 0 10.745 0 24zm19.6 11l.408-6.118 11.129-10.043c.488-.433-.107-.645-.755-.252l-13.735 8.665-5.932-1.851c-1.281-.393-1.29-1.273.287-1.906l23.118-8.914c1.056-.48 2.075.254 1.672 1.87l-3.937 18.552c-.275 1.319-1.071 1.634-2.175 1.025l-5.997-4.431L20.8 34.4l-.027.026c-.322.314-.59.574-1.173.574z" fill="#D5AA6D"/></svg><svg fill="none" viewBox="0 0 48 48" id="viber" xmlns="http://www.w3.org/2000/svg"><path fill-rule="evenodd" clip-rule="evenodd" d="M24 0c13.255 0 24 10.745 24 24S37.255 48 24 48 0 37.255 0 24 10.745 0 24 0zm6.394 20.958c-.117-.948-.408-1.692-.926-2.352-.672-.85-1.53-1.358-2.802-1.66-.83-.2-1.164-.178-1.464.096-.279.257-.334.771-.12 1.104.15.242.323.328.804.423.642.118 1.085.27 1.488.501.855.494 1.253 1.267 1.296 2.518.02.588.07.769.276.977.38.381 1.057.307 1.344-.149.106-.172.122-.247.133-.646a6.33 6.33 0 00-.029-.812zm.012-5.818c2.033 1.645 3.17 3.982 3.339 6.888.07 1.144-.024 1.517-.427 1.729a.862.862 0 01-1.06-.164c-.188-.193-.26-.456-.258-.923.009-1.29-.288-2.73-.772-3.73a7.204 7.204 0 00-2.51-2.876c-.953-.636-2.213-1.065-3.435-1.172-.793-.07-1.076-.204-1.228-.584-.095-.227-.07-.62.04-.796a1.09 1.09 0 01.506-.39c.175-.05 1.2.039 1.755.15 1.518.309 2.904.944 4.05 1.868zm7.046 18.076a3.194 3.194 0 00-.284-.569c-.597-.901-3.803-3.41-5.404-4.231-.915-.47-1.592-.627-2.094-.48-.54.152-.824.404-1.729 1.528-.365.45-.739.873-.838.94-.247.17-.73.308-1.07.308-.792-.005-2.227-.517-3.33-1.191-.858-.522-1.957-1.457-2.8-2.381-.995-1.087-1.672-2.045-2.207-3.127-.692-1.39-.867-2.239-.578-2.86a2.3 2.3 0 01.208-.375c.043-.047.488-.413.98-.811.967-.769 1.123-.944 1.303-1.47.227-.67.166-1.353-.185-2.04-.27-.523-.975-1.661-1.487-2.396-.677-.968-2.364-3.036-2.7-3.316-.606-.494-1.383-.58-2.24-.247-.905.351-2.6 1.717-3.325 2.67-.654.864-.905 1.476-.943 2.283-.033.664.024.939.374 1.788 2.743 6.66 6.835 11.978 12.458 16.2 2.936 2.206 5.982 3.886 9.142 5.034 1.842.668 2.643.702 3.585.151.398-.237 1.383-1.247 1.933-1.983.91-1.224 1.246-1.788 1.34-2.239.066-.308.014-.844-.109-1.186zm-1.21-15.015c.576 1.502.853 2.85.914 4.494.01.325.005.92-.016 1.322-.044.773-.086.926-.309 1.13-.357.336-1.054.256-1.318-.148-.138-.217-.157-.376-.13-1.278.076-2.67-.464-4.76-1.764-6.85-1.554-2.507-3.88-4.196-6.902-5.023-.771-.21-1.42-.338-2.431-.474-.658-.087-.803-.123-.965-.223-.49-.314-.497-1.11-.008-1.43.252-.168.439-.175 1.261-.07 2.413.302 4.566 1.019 6.335 2.102 1.268.778 2.068 1.476 3.097 2.7 1.089 1.304 1.666 2.27 2.235 3.748z" fill="#D5AA6D"/></svg><svg fill="none" viewBox="0 0 48 48" id="whatsapp" xmlns="http://www.w3.org/2000/svg"><path fill-rule="evenodd" clip-rule="evenodd" d="M0 24c0 13.255 10.745 24 24 24s24-10.745 24-24S37.255 0 24 0 0 10.745 0 24zm39.062-.919c-.003 7.867-6.402 14.268-14.27 14.271h-.007c-2.388 0-4.735-.6-6.82-1.736L10.4 37.6l2.025-7.395a14.246 14.246 0 01-1.905-7.135c.003-7.868 6.405-14.27 14.27-14.27a14.18 14.18 0 0110.096 4.185 14.184 14.184 0 014.176 10.096z" fill="#D5AA6D"/><path fill-rule="evenodd" clip-rule="evenodd" d="M13.826 34.21l4.49-1.178.433.257a11.845 11.845 0 006.037 1.653h.005c6.538 0 11.859-5.32 11.862-11.861a11.79 11.79 0 00-3.471-8.392 11.78 11.78 0 00-8.386-3.479c-6.543 0-11.864 5.321-11.867 11.861 0 2.241.626 4.424 1.814 6.313l.282.448-1.199 4.378zm17.666-8.056c.25.12.417.201.489.321.089.149.089.863-.208 1.696s-1.722 1.593-2.407 1.695c-.614.092-1.392.13-2.246-.141a20.476 20.476 0 01-2.033-.751c-3.343-1.444-5.602-4.684-6.029-5.296a4.23 4.23 0 00-.062-.088l-.003-.004c-.189-.252-1.453-1.94-1.453-3.685 0-1.643.806-2.504 1.178-2.9l.07-.075a1.31 1.31 0 01.95-.446 14.808 14.808 0 01.764.013c.208 0 .467-.002.722.612.099.236.242.586.394.955.307.747.646 1.573.706 1.692.089.179.148.387.03.625l-.05.102c-.09.182-.156.316-.307.493-.06.07-.121.144-.183.22-.123.149-.245.298-.352.404-.179.178-.364.371-.157.728.209.357.924 1.525 1.984 2.47a9.188 9.188 0 002.632 1.664c.098.043.178.077.236.106.356.179.564.15.772-.089.208-.238.892-1.041 1.13-1.398.237-.357.475-.298.802-.179.327.12 2.08.982 2.436 1.16l.195.096z" fill="#D5AA6D"/></svg></svg>